<svg xmlns="http://www.w3.org/2000/svg" width="20.001" height="15.834" viewBox="0 0 20.001 15.834"><g transform="translate(-0.001)"><path d="M10,0A10,10,0,0,0,1.618,15.456a.833.833,0,0,0,.7.378H17.686a.833.833,0,0,0,.7-.378A10,10,0,0,0,10,0ZM17.22,14.167H2.782a8.286,8.286,0,0,1-1.073-3.333H3.334V9.167H1.709a8.265,8.265,0,0,1,.7-2.589l1.4.811.833-1.443-1.4-.81a8.4,8.4,0,0,1,1.9-1.9l.81,1.4L7.39,3.81l-.811-1.4a8.265,8.265,0,0,1,2.589-.7V3.333h1.667V1.708a8.265,8.265,0,0,1,2.589.7l-.811,1.4,1.443.833.81-1.4a8.4,8.4,0,0,1,1.9,1.9l-1.4.81.833,1.443,1.4-.811a8.265,8.265,0,0,1,.7,2.589H16.668v1.667h1.625a8.286,8.286,0,0,1-1.073,3.333Z" transform="translate(0)" fill="#7e7e7e"/><path d="M76.218,59.884,74.931,62.03a2.5,2.5,0,1,0,1.429.858l1.288-2.147Zm-1.785,5.429a.833.833,0,1,1,.833-.833A.833.833,0,0,1,74.433,65.313Z" transform="translate(-64.432 -53.646)" fill="#7e7e7e"/></g></svg>