<svg xmlns="http://www.w3.org/2000/svg" width="15.97" height="19.793" viewBox="0 0 15.97 19.793"><g transform="translate(-61)"><path d="M76.79,4.809,71.877.17A.634.634,0,0,0,71.442,0h-8.6A1.8,1.8,0,0,0,61,1.74V18.053a1.8,1.8,0,0,0,1.843,1.74H75.128a1.8,1.8,0,0,0,1.843-1.74V5.219A.569.569,0,0,0,76.79,4.809ZM72.056,1.98l2.817,2.659h-2.2a.6.6,0,0,1-.614-.58Zm3.071,16.653H62.843a.6.6,0,0,1-.614-.58V1.74a.6.6,0,0,1,.614-.58h7.985v2.9A1.8,1.8,0,0,0,72.671,5.8h3.071V18.053A.6.6,0,0,1,75.128,18.633Z" transform="translate(0 0)" fill="#7e7e7e"/><path d="M160.034,212h-8.339c-.384,0-.695.233-.695.52s.311.52.695.52h8.339c.384,0,.695-.233.695-.52S160.418,212,160.034,212Z" transform="translate(-86.879 -203.752)" fill="#7e7e7e"/><path d="M160.034,272h-8.339c-.384,0-.695.233-.695.52s.311.52.695.52h8.339c.384,0,.695-.233.695-.52S160.418,272,160.034,272Z" transform="translate(-86.879 -261.418)" fill="#7e7e7e"/><path d="M160.034,332h-8.339c-.384,0-.695.233-.695.52s.311.52.695.52h8.339c.384,0,.695-.233.695-.52S160.418,332,160.034,332Z" transform="translate(-86.879 -319.083)" fill="#7e7e7e"/><path d="M155.681,392H151.52a.52.52,0,1,0,0,1.04h4.161a.52.52,0,1,0,0-1.04Z" transform="translate(-85.962 -376.749)" fill="#7e7e7e"/></g></svg>