<svg id="Group_318" data-name="Group 318" xmlns="http://www.w3.org/2000/svg" width="9.476" height="9.149" viewBox="0 0 9.476 9.149">
  <path id="Path_403" data-name="Path 403" d="M4.738,0A4.664,4.664,0,0,0,0,4.574,4.406,4.406,0,0,0,.739,7.026L.021,8.756a.279.279,0,0,0,.066.309A.3.3,0,0,0,.3,9.149a.308.308,0,0,0,.11-.021L2.2,8.435a4.8,4.8,0,0,0,2.54.714A4.664,4.664,0,0,0,9.476,4.574,4.664,4.664,0,0,0,4.738,0Zm0,8.577a4.19,4.19,0,0,1-2.337-.7.3.3,0,0,0-.168-.051.306.306,0,0,0-.11.021l-1.295.5L1.347,7.1a.278.278,0,0,0-.031-.269A3.851,3.851,0,0,1,.592,4.574a4.081,4.081,0,0,1,4.146-4,4.081,4.081,0,0,1,4.146,4A4.081,4.081,0,0,1,4.738,8.577Z" fill="#bcbcbc"/>
</svg>
