<svg xmlns="http://www.w3.org/2000/svg" width="16.477" height="15.542" viewBox="0 0 16.477 15.542">
  <g id="male-user-shadow" transform="translate(0 -7.045)">
    <g id="Group_2" data-name="Group 2" transform="translate(0 7.045)">
      <path id="Path_4" data-name="Path 4" d="M.66,143.092H15.817a.687.687,0,0,0,.518-.227.559.559,0,0,0,.138-.446,8.338,8.338,0,0,0-4.389-6.306,5.431,5.431,0,0,1-7.69,0A8.336,8.336,0,0,0,0,142.419a.559.559,0,0,0,.138.446A.687.687,0,0,0,.66,143.092Z" transform="translate(0 -127.55)" fill="#fff"/>
      <path id="Path_5" data-name="Path 5" d="M54.362,15.01c.088.093.181.181.276.267a4.69,4.69,0,0,0,6.278,0c.1-.086.188-.174.276-.267s.174-.188.255-.287a4.718,4.718,0,1,0-7.34,0C54.188,14.822,54.274,14.917,54.362,15.01Z" transform="translate(-49.539 -7.045)" fill="#fff"/>
    </g>
  </g>
</svg>
