<svg id="menu" xmlns="http://www.w3.org/2000/svg" width="25.219" height="25.219" viewBox="0 0 25.219 25.219">
  <g id="Group_432" data-name="Group 432">
    <g id="Group_431" data-name="Group 431">
      <path id="Path_414" data-name="Path 414" d="M8.708,0H2.916A2.92,2.92,0,0,0,0,2.916V8.708a2.92,2.92,0,0,0,2.916,2.916H8.708a2.92,2.92,0,0,0,2.916-2.916V2.916A2.92,2.92,0,0,0,8.708,0Zm.946,8.708a.947.947,0,0,1-.946.946H2.916a.947.947,0,0,1-.946-.946V2.916a.947.947,0,0,1,.946-.946H8.708a.947.947,0,0,1,.946.946Z" fill="#bebebe"/>
    </g>
  </g>
  <g id="Group_434" data-name="Group 434" transform="translate(13.595)">
    <g id="Group_433" data-name="Group 433">
      <path id="Path_415" data-name="Path 415" d="M284.669,0h-5.714A2.959,2.959,0,0,0,276,2.955V8.669a2.959,2.959,0,0,0,2.955,2.955h5.714a2.959,2.959,0,0,0,2.955-2.955V2.955A2.959,2.959,0,0,0,284.669,0Zm.985,8.669a.986.986,0,0,1-.985.985h-5.714a.986.986,0,0,1-.985-.985V2.955a.986.986,0,0,1,.985-.985h5.714a.986.986,0,0,1,.985.985Z" transform="translate(-276)" fill="#bebebe"/>
    </g>
  </g>
  <g id="Group_436" data-name="Group 436" transform="translate(0 13.595)">
    <g id="Group_435" data-name="Group 435">
      <path id="Path_416" data-name="Path 416" d="M8.708,276H2.916A2.92,2.92,0,0,0,0,278.916v5.792a2.92,2.92,0,0,0,2.916,2.916H8.708a2.92,2.92,0,0,0,2.916-2.916v-5.792A2.92,2.92,0,0,0,8.708,276Zm.946,8.708a.947.947,0,0,1-.946.946H2.916a.947.947,0,0,1-.946-.946v-5.792a.947.947,0,0,1,.946-.946H8.708a.947.947,0,0,1,.946.946Z" transform="translate(0 -276)" fill="#bebebe"/>
    </g>
  </g>
  <g id="Group_438" data-name="Group 438" transform="translate(13.595 13.595)">
    <g id="Group_437" data-name="Group 437">
      <path id="Path_417" data-name="Path 417" d="M284.669,276h-5.714A2.959,2.959,0,0,0,276,278.955v5.714a2.959,2.959,0,0,0,2.955,2.955h5.714a2.959,2.959,0,0,0,2.955-2.955v-5.714A2.959,2.959,0,0,0,284.669,276Zm.985,8.669a.986.986,0,0,1-.985.985h-5.714a.986.986,0,0,1-.985-.985v-5.714a.986.986,0,0,1,.985-.985h5.714a.986.986,0,0,1,.985.985Z" transform="translate(-276 -276)" fill="#bebebe"/>
    </g>
  </g>
</svg>
