<svg xmlns="http://www.w3.org/2000/svg" width="36.058" height="36.372" viewBox="0 0 36.058 36.372">
  <g id="Group_350" data-name="Group 350" transform="translate(-22.62 -23.019)">
    <g id="Layer_x0020_1" transform="translate(22.928 23.616)">
      <g id="_3015467592896">
        <path id="Path_1" data-name="Path 1" d="M15.383,115.067c-.441.661-1.984,1.386-1.323,2.834.567,1.291,1.795.693,2.991,1.449a3.169,3.169,0,0,1,1.1,1.134,5.045,5.045,0,0,1,.472,1.7,2.483,2.483,0,0,0,.945,1.26l3.369,3.306a32.042,32.042,0,0,0,3.432,3.212,3.2,3.2,0,0,0,1.763.441A3.948,3.948,0,0,0,31,128.828c.6-.724,1.543-1.2,1.637-2.771a3.553,3.553,0,0,0-1.48-2.991l-4.471-4.408c-.378-.346-.756-.693-1.134-1.071a2.483,2.483,0,0,0-1.26-.945,5.4,5.4,0,0,1-1.732-.441c-2.425-1.354-.976-3.338-2.677-4.062-1.511-.63-2.3,1.071-2.866,1.323-.346-.346-.661-.567-1.008-.945-.409-.441-1.795-1.669-2.078-1.984s-1.763-1.637-2.078-1.984c-.315-.378-1.669-1.543-2.078-1.984-.378-.441-1.637-1.543-2.047-1.952-.535-.567-1.795-1.543-1.921-2.141a2.249,2.249,0,0,0-1.165-1.858c-.22-.157-.378-.315-.567-.472-.378-.283-.756-.6-1.134-.882C1.275,97.969,1.37,97.969.488,98.819c-.913.882-.787.882.378,2.362.63.756,1.228,1.48,1.858,2.2a2.119,2.119,0,0,0,1.386.63,2.5,2.5,0,0,1,1.2.85c.346.378.661.693,1.008,1.039l6.046,6.109c.315.315.661.63,1.039,1.008l1.008,1.008A9.843,9.843,0,0,1,15.383,115.067Z" transform="translate(0.114 -95.131)" fill="none" stroke="#000" stroke-width="1" fill-rule="evenodd"/>
        <path id="Path_2" data-name="Path 2" d="M488,14.542l1.764,1.7a4.765,4.765,0,0,1,1.2-.724,3.232,3.232,0,0,1,1.732-.094,3.157,3.157,0,0,1,2.141,1.763,15.867,15.867,0,0,0,1.511-1.449c.6-.567.976-1.1,1.889-1.1.378,0,.85.157,1.291.189A7.535,7.535,0,0,0,507.87,6.89c-.157,0-4.818,2.551-5.7,3.023-.661.346-.472.283-1.1-.094-.409-.22-.756-.441-1.1-.661-.346-.189-.787-.472-1.134-.661l.063-3.212c.063-.126,6.109-3.243,6.392-3.5a4.108,4.108,0,0,0-.567-.472,4.658,4.658,0,0,0-.661-.409,7.569,7.569,0,0,0-11.273,7.746c.189,1.26-.661,1.795-1.575,2.677C490.865,11.677,488.063,14.416,488,14.542Z" transform="translate(-472.63 0.103)" fill="none" stroke="#000" stroke-width="1" fill-rule="evenodd"/>
        <path id="Path_3" data-name="Path 3" d="M26.354,583.739c-.189-.126-.409-.22-.6-.346a3.111,3.111,0,0,1-1.134-3.432,3.491,3.491,0,0,1,.535-.945c.094-.126.126-.126.22-.252-.126-.221-1.386-1.417-1.732-1.763a8.718,8.718,0,0,0-.787.756l-5.92,5.857c-.157.126-.252.252-.409.378l-2.393,2.362a6.38,6.38,0,0,0-1.48,1.669,3.351,3.351,0,0,0,3.779,4.755,3.714,3.714,0,0,0,1.952-1.2Z" transform="translate(-11.897 -558.827)" fill="none" stroke="#000" stroke-width="1" fill-rule="evenodd"/>
      </g>
    </g>
  </g>
</svg>
