<svg xmlns="http://www.w3.org/2000/svg" width="11.251" height="11.243" viewBox="0 0 11.251 11.243">
  <g id="paperclip" transform="matrix(0.695, -0.719, 0.719, 0.695, 0, 5.603)">
    <g id="Group_317" data-name="Group 317">
      <path id="Path_402" data-name="Path 402" d="M7.119.624A2.331,2.331,0,0,0,4.005.57L.78,3.55a.228.228,0,0,0,.006.339.274.274,0,0,0,.366.006L4.378.916A1.826,1.826,0,0,1,6.759.957,1.483,1.483,0,0,1,6.8,3.164l-4.5,4.21A1.123,1.123,0,0,1,.829,7.348.912.912,0,0,1,.806,5.99L5.128,1.947a.421.421,0,0,1,.549.01.342.342,0,0,1,.009.509L1.544,6.343a.253.253,0,0,0,.006.339.274.274,0,0,0,.366.006L6.059,2.812a.8.8,0,0,0-.021-1.188A.983.983,0,0,0,4.756,1.6L.433,5.644A1.376,1.376,0,0,0,.469,7.681a1.661,1.661,0,0,0,1.106.438,1.552,1.552,0,0,0,1.092-.4l4.5-4.21A1.939,1.939,0,0,0,7.119.624Z" fill="#afafaf"/>
    </g>
  </g>
</svg>
