<svg id="qr-code_1_" data-name="qr-code (1)" xmlns="http://www.w3.org/2000/svg" width="63.928" height="63.928" viewBox="0 0 63.928 63.928">
  <g id="Group_645" data-name="Group 645">
    <g id="Group_644" data-name="Group 644">
      <path id="Path_517" data-name="Path 517" d="M40,41.065v8.524a1.066,1.066,0,0,0,1.065,1.065h8.524a1.066,1.066,0,0,0,1.065-1.065V41.065A1.066,1.066,0,0,0,49.589,40H41.065A1.066,1.066,0,0,0,40,41.065Zm2.131,1.065h6.393v6.393H42.131Z" transform="translate(-34.673 -34.673)" fill="#fff"/>
      <path id="Path_518" data-name="Path 518" d="M361.065,50.655h8.524a1.066,1.066,0,0,0,1.065-1.065V41.065A1.066,1.066,0,0,0,369.589,40h-8.524A1.066,1.066,0,0,0,360,41.065v8.524A1.066,1.066,0,0,0,361.065,50.655Zm1.065-8.524h6.393v6.393h-6.393Z" transform="translate(-312.054 -34.673)" fill="#fff"/>
      <path id="Path_519" data-name="Path 519" d="M49.589,360H41.065A1.066,1.066,0,0,0,40,361.065v8.524a1.066,1.066,0,0,0,1.065,1.065h8.524a1.066,1.066,0,0,0,1.065-1.065v-8.524A1.066,1.066,0,0,0,49.589,360Zm-1.065,8.524H42.131v-6.393h6.393Z" transform="translate(-34.673 -312.054)" fill="#fff"/>
      <rect id="Rectangle_909" data-name="Rectangle 909" width="3" height="3" transform="translate(9 9)" fill="#fff"/>
      <path id="Path_520" data-name="Path 520" d="M2.131,2.131h8.524V0H1.065A1.066,1.066,0,0,0,0,1.065v9.589H2.131Z" fill="#fff"/>
      <path id="Path_521" data-name="Path 521" d="M2.131,400H0v9.589a1.066,1.066,0,0,0,1.065,1.065h9.589v-2.131H2.131Z" transform="translate(0 -346.726)" fill="#fff"/>
      <path id="Path_522" data-name="Path 522" d="M409.589,0H400V2.131h8.524v8.524h2.131V1.065A1.066,1.066,0,0,0,409.589,0Z" transform="translate(-346.726)" fill="#fff"/>
      <path id="Path_523" data-name="Path 523" d="M422.393,408.524H416v2.131h7.458a1.065,1.065,0,0,0,1.065-1.065V400h-2.131Z" transform="translate(-360.595 -346.726)" fill="#fff"/>
      <rect id="Rectangle_910" data-name="Rectangle 910" width="3" height="3" transform="translate(52 9)" fill="#fff"/>
      <rect id="Rectangle_911" data-name="Rectangle 911" width="3" height="3" transform="translate(9 52)" fill="#fff"/>
      <rect id="Rectangle_912" data-name="Rectangle 912" width="2" height="3" transform="translate(18 9)" fill="#fff"/>
      <rect id="Rectangle_913" data-name="Rectangle 913" width="2" height="3" transform="translate(33 9)" fill="#fff"/>
      <path id="Path_524" data-name="Path 524" d="M280,72v4.262h4.262V74.131h-2.131V72Z" transform="translate(-242.708 -62.411)" fill="#fff"/>
      <path id="Path_525" data-name="Path 525" d="M154.131,44.262v2.131h2.131V42.131h17.048v2.131h2.131V40H152v2.131h2.131Z" transform="translate(-131.756 -34.673)" fill="#fff"/>
      <rect id="Rectangle_914" data-name="Rectangle 914" width="2" height="4" transform="translate(18 14)" fill="#fff"/>
      <rect id="Rectangle_915" data-name="Rectangle 915" width="3" height="2" transform="translate(20 18)" fill="#fff"/>
      <path id="Path_526" data-name="Path 526" d="M168,76.262v2.131h2.131v2.131h4.262V76.262h1.065V74.131h1.065V72h-4.262v2.131h1.065v2.131Z" transform="translate(-145.625 -62.411)" fill="#fff"/>
      <rect id="Rectangle_916" data-name="Rectangle 916" width="2" height="2" transform="translate(31 16)" fill="#fff"/>
      <path id="Path_527" data-name="Path 527" d="M320,172.262h2.131v-2.131h2.131V168H320Z" transform="translate(-277.381 -145.625)" fill="#fff"/>
      <rect id="Rectangle_917" data-name="Rectangle 917" width="2" height="2" transform="translate(33 14)" fill="#fff"/>
      <path id="Path_528" data-name="Path 528" d="M172.262,348.262v-2.131h-2.131V344H168v4.262Z" transform="translate(-145.625 -298.185)" fill="#fff"/>
      <rect id="Rectangle_918" data-name="Rectangle 918" width="2" height="2" transform="translate(44 12)" fill="#fff"/>
      <rect id="Rectangle_919" data-name="Rectangle 919" width="5" height="4" transform="translate(42 16)" fill="#fff"/>
      <path id="Path_529" data-name="Path 529" d="M40,258.655h2.131v-8.524h2.131V248H40Z" transform="translate(-34.673 -214.97)" fill="#fff"/>
      <rect id="Rectangle_920" data-name="Rectangle 920" width="10" height="2" transform="translate(6 18)" fill="#fff"/>
      <path id="Path_530" data-name="Path 530" d="M44.262,168H40v6.393h2.131v-2.131h2.131Z" transform="translate(-34.673 -145.625)" fill="#fff"/>
      <path id="Path_531" data-name="Path 531" d="M172.262,164.786v-2.131h2.131v-4.262h2.131v-2.131h2.131v-2.131h-2.131V152h-2.131v4.262h-2.131v-2.131H168v4.262h2.131v6.393Z" transform="translate(-145.625 -131.756)" fill="#fff"/>
      <path id="Path_532" data-name="Path 532" d="M136,398.393h2.131v-2.131h3.2v2.131h2.131v-2.131h1.065v-2.131h-6.393V392H136Z" transform="translate(-117.887 -339.792)" fill="#fff"/>
      <path id="Path_533" data-name="Path 533" d="M276.262,216.524v-2.131h2.131v-2.131h2.131V208h-6.393v4.262H272v2.131h2.131v2.131Z" transform="translate(-235.774 -180.298)" fill="#fff"/>
      <path id="Path_534" data-name="Path 534" d="M266.131,148.262h2.131v-2.131h-2.131V144H264v6.393h2.131Z" transform="translate(-228.839 -124.821)" fill="#fff"/>
      <rect id="Rectangle_921" data-name="Rectangle 921" width="4" height="1" transform="translate(12 23)" fill="#fff"/>
      <rect id="Rectangle_922" data-name="Rectangle 922" width="2" height="1" transform="translate(18 23)" fill="#fff"/>
      <rect id="Rectangle_923" data-name="Rectangle 923" width="2" height="2" transform="translate(12 33)" fill="#fff"/>
      <rect id="Rectangle_924" data-name="Rectangle 924" width="2" height="2" transform="translate(18 35)" fill="#fff"/>
      <rect id="Rectangle_925" data-name="Rectangle 925" width="3" height="2" transform="translate(20 33)" fill="#fff"/>
      <rect id="Rectangle_926" data-name="Rectangle 926" width="3" height="2" transform="translate(20 50)" fill="#fff"/>
      <rect id="Rectangle_927" data-name="Rectangle 927" width="3" height="2" transform="translate(9 29)" fill="#fff"/>
      <rect id="Rectangle_928" data-name="Rectangle 928" width="4" height="3" transform="translate(12 26)" fill="#fff"/>
      <rect id="Rectangle_929" data-name="Rectangle 929" width="2" height="2" transform="translate(16 29)" fill="#fff"/>
      <rect id="Rectangle_930" data-name="Rectangle 930" width="2" height="2" transform="translate(33 28)" fill="#fff"/>
      <rect id="Rectangle_931" data-name="Rectangle 931" width="2" height="2" transform="translate(31 30)" fill="#fff"/>
      <rect id="Rectangle_932" data-name="Rectangle 932" width="2" height="2" transform="translate(34 35)" fill="#fff"/>
      <rect id="Rectangle_933" data-name="Rectangle 933" width="4" height="2" transform="translate(48 33)" fill="#fff"/>
      <rect id="Rectangle_934" data-name="Rectangle 934" width="3" height="2" transform="translate(52 35)" fill="#fff"/>
      <rect id="Rectangle_935" data-name="Rectangle 935" width="2" height="2" transform="translate(30 35)" fill="#fff"/>
      <path id="Path_535" data-name="Path 535" d="M174.393,264h-4.262v2.131H168v2.131h4.262v-2.131h2.131Z" transform="translate(-145.625 -228.839)" fill="#fff"/>
      <path id="Path_536" data-name="Path 536" d="M218.131,410.131H216v2.131h4.262v-2.131h2.131V408h-4.262Z" transform="translate(-187.232 -353.661)" fill="#fff"/>
      <path id="Path_537" data-name="Path 537" d="M298.131,408v2.131H296v2.131h4.262v-2.131h2.131V408Z" transform="translate(-256.577 -353.661)" fill="#fff"/>
      <path id="Path_538" data-name="Path 538" d="M356.262,140.262v-2.131h2.131V136h-4.262v2.131H352v2.131Z" transform="translate(-305.119 -117.887)" fill="#fff"/>
      <rect id="Rectangle_936" data-name="Rectangle 936" width="2" height="3" transform="translate(32 42)" fill="#fff"/>
      <rect id="Rectangle_937" data-name="Rectangle 937" width="2" height="2" transform="translate(32 47)" fill="#fff"/>
      <rect id="Rectangle_938" data-name="Rectangle 938" width="2" height="3" transform="translate(29 52)" fill="#fff"/>
      <path id="Path_539" data-name="Path 539" d="M210.131,306.131V304H208v4.262h2.131Z" transform="translate(-180.298 -263.512)" fill="#fff"/>
      <rect id="Rectangle_939" data-name="Rectangle 939" width="2" height="2" transform="translate(34 49)" fill="#fff"/>
      <path id="Path_540" data-name="Path 540" d="M348.262,410.131H344v2.131h6.393V408h-2.131Z" transform="translate(-298.185 -353.661)" fill="#fff"/>
      <rect id="Rectangle_940" data-name="Rectangle 940" width="2" height="2" transform="translate(50 50)" fill="#fff"/>
      <rect id="Rectangle_941" data-name="Rectangle 941" width="2" height="2" transform="translate(46 50)" fill="#fff"/>
      <rect id="Rectangle_942" data-name="Rectangle 942" width="3" height="2" transform="translate(41 50)" fill="#fff"/>
      <rect id="Rectangle_943" data-name="Rectangle 943" width="2" height="2" transform="translate(44 48)" fill="#fff"/>
      <rect id="Rectangle_944" data-name="Rectangle 944" width="2" height="1" transform="translate(37 55)" fill="#fff"/>
      <rect id="Rectangle_945" data-name="Rectangle 945" width="2" height="2" transform="translate(18 31)" fill="#fff"/>
      <path id="Path_541" data-name="Path 541" d="M410.131,398.393h2.131V392H408v2.131h2.131Z" transform="translate(-353.661 -339.792)" fill="#fff"/>
      <rect id="Rectangle_946" data-name="Rectangle 946" width="1" height="2" transform="translate(55 48)" fill="#fff"/>
      <path id="Path_542" data-name="Path 542" d="M412.262,296h-2.131v4.262H408v2.131h4.262Z" transform="translate(-353.661 -256.577)" fill="#fff"/>
      <rect id="Rectangle_947" data-name="Rectangle 947" width="2" height="2" transform="translate(56 35)" fill="#fff"/>
      <path id="Path_543" data-name="Path 543" d="M370.655,136h-2.131v9.589h-4.262v-2.131H360v4.262h8.524v3.2h2.131Z" transform="translate(-312.054 -117.887)" fill="#fff"/>
      <path id="Path_544" data-name="Path 544" d="M264.524,296.524v-4.262h-2.131V288H256v4.262h2.131v4.262Z" transform="translate(-221.905 -249.643)" fill="#fff"/>
      <path id="Path_545" data-name="Path 545" d="M80.524,280H72v8.524h4.262v-2.131H74.131v-2.131h4.262v6.393h2.131v-2.131h4.262v-2.131H82.655v-2.131h2.131v-2.131H80.524Z" transform="translate(-62.411 -242.708)" fill="#fff"/>
      <path id="Path_546" data-name="Path 546" d="M352.524,282.131h-4.262V280H344v4.262h2.131v6.393h2.131v-2.131h2.131v-4.262h2.131Z" transform="translate(-298.185 -242.708)" fill="#fff"/>
    </g>
  </g>
</svg>
