<svg xmlns="http://www.w3.org/2000/svg" width="18.383" height="17.235" viewBox="0 0 18.383 17.235"><path d="M.539,17.735H10.3a.539.539,0,0,0,.539-.539V15.581h.539a.539.539,0,0,0,.539-.539V13.063a3.736,3.736,0,0,0,.642-.387l.751.751-.381.381a.539.539,0,0,0,0,.762l2.693,2.693a1.616,1.616,0,0,0,2.285-2.285l-2.693-2.693a.539.539,0,0,0-.762,0l-.381.381-.751-.751a3.77,3.77,0,0,0-1.4-5.664V4.27a.54.54,0,0,0-.158-.381L8.531.658A.542.542,0,0,0,8.151.5H2.693a.539.539,0,0,0-.539.539v.539H.539A.539.539,0,0,0,0,2.116V17.2a.539.539,0,0,0,.539.539Zm16.61-2a.539.539,0,0,1-.762.762l-2.312-2.312.762-.762Zm-4.94-4.178a2.693,2.693,0,1,1,0-3.808A2.7,2.7,0,0,1,12.209,11.561ZM8.689,2.339l1.393,1.393H8.689ZM3.232,1.578h4.38V4.271a.539.539,0,0,0,.539.539h2.693V5.926a3.769,3.769,0,1,0,0,7.46V14.5H3.232ZM1.077,2.655H2.154V15.042a.539.539,0,0,0,.539.539H9.766v1.077H1.077Zm0,0" transform="translate(0 -0.5)" fill="#7e7e7e"/></svg>