<svg xmlns="http://www.w3.org/2000/svg" width="18.817" height="15.962" viewBox="0 0 18.817 15.962"><g transform="translate(0 -38.84)"><g transform="translate(14.645 47.458)"><g transform="translate(0 0)"><path d="M399.949,273.32h-1.455a3.785,3.785,0,0,1,.229,1.3v5.5a1.622,1.622,0,0,1-.093.543h2.406a1.632,1.632,0,0,0,1.63-1.63v-3A2.719,2.719,0,0,0,399.949,273.32Z" transform="translate(-398.494 -273.32)" fill="#7e7e7e"/></g></g><g transform="translate(0 47.458)"><g transform="translate(0 0)"><path d="M3.942,274.622a3.785,3.785,0,0,1,.229-1.3H2.716A2.719,2.719,0,0,0,0,276.037v3a1.632,1.632,0,0,0,1.63,1.63H4.036a1.623,1.623,0,0,1-.093-.543Z" transform="translate(0 -273.321)" fill="#7e7e7e"/></g></g><g transform="translate(5.029 46.042)"><g transform="translate(0 0)"><path d="M142.872,234.815h-3.327a2.719,2.719,0,0,0-2.716,2.716v5.5a.543.543,0,0,0,.543.543h7.673a.543.543,0,0,0,.543-.543v-5.5A2.719,2.719,0,0,0,142.872,234.815Z" transform="translate(-136.829 -234.815)" fill="#7e7e7e"/></g></g><g transform="translate(6.142 38.84)"><g transform="translate(0 0)"><path d="M170.381,38.84a3.266,3.266,0,1,0,3.267,3.267A3.27,3.27,0,0,0,170.381,38.84Z" transform="translate(-167.114 -38.84)" fill="#7e7e7e"/></g></g><g transform="translate(1.229 41.885)"><g transform="translate(0 0)"><path d="M35.886,121.689a2.442,2.442,0,1,0,2.443,2.443A2.446,2.446,0,0,0,35.886,121.689Z" transform="translate(-33.443 -121.689)" fill="#7e7e7e"/></g></g><g transform="translate(12.702 41.885)"><g transform="translate(0 0)"><path d="M348.05,121.689a2.443,2.443,0,1,0,2.443,2.443A2.446,2.446,0,0,0,348.05,121.689Z" transform="translate(-345.607 -121.689)" fill="#7e7e7e"/></g></g></g></svg>